<?xml version="1.0" standalone="no"?>
<!DOCTYPE svg PUBLIC "-//W3C//DTD SVG 20010904//EN"
 "http://www.w3.org/TR/2001/REC-SVG-20010904/DTD/svg10.dtd">
<svg version="1.0" xmlns="http://www.w3.org/2000/svg"
 width="512.000000pt" height="512.000000pt" viewBox="0 0 512.000000 512.000000"
 preserveAspectRatio="xMidYMid meet">

<g transform="translate(0.000000,512.000000) scale(0.100000,-0.100000)"
fill="#000000" stroke="none">
<path d="M2454 5102 c-66 -23 -124 -70 -163 -130 -49 -77 -101 -198 -129 -301
l-26 -96 -3 -505 -4 -505 -1008 -1010 c-607 -608 -1020 -1030 -1039 -1060 -63
-102 -76 -160 -80 -366 -4 -213 2 -239 65 -266 32 -13 41 -13 72 -1 30 12 693
434 1814 1154 114 74 211 134 215 134 4 0 15 -107 25 -237 17 -221 80 -893 92
-974 l5 -36 -385 -254 c-301 -199 -388 -261 -400 -286 -11 -22 -15 -64 -15
-147 0 -139 12 -178 65 -203 35 -17 37 -16 522 90 l486 107 483 -107 c483
-107 483 -107 519 -90 53 25 65 63 65 203 0 125 -11 165 -53 194 -12 9 -185
123 -384 254 l-363 239 5 36 c12 81 75 753 92 974 10 130 21 237 25 237 4 0
454 -286 1000 -637 546 -350 1009 -643 1029 -650 31 -13 40 -13 72 0 63 27 69
53 65 266 -4 206 -17 264 -80 366 -19 30 -432 452 -1039 1060 l-1008 1010 -4
505 -3 505 -27 100 c-34 125 -117 296 -171 350 -85 84 -222 116 -332 77z"/>
</g>
</svg>
