<?xml version="1.0" standalone="no"?>
<!DOCTYPE svg PUBLIC "-//W3C//DTD SVG 20010904//EN"
 "http://www.w3.org/TR/2001/REC-SVG-20010904/DTD/svg10.dtd">
<svg version="1.0" xmlns="http://www.w3.org/2000/svg"
 width="512.000000pt" height="512.000000pt" viewBox="0 0 512.000000 512.000000"
 preserveAspectRatio="xMidYMid meet">

<g transform="translate(0.000000,512.000000) scale(0.100000,-0.100000)"
fill="#000000" stroke="none">
<path d="M2380 5114 c-19 -2 -78 -9 -130 -14 -794 -87 -1525 -579 -1933 -1305
-147 -262 -255 -597 -299 -925 -16 -123 -16 -497 0 -620 77 -582 319 -1078
725 -1489 410 -415 917 -665 1507 -743 123 -16 497 -16 620 0 590 78 1097 328
1507 743 406 411 648 907 725 1489 16 123 16 497 0 620 -77 582 -319 1078
-725 1489 -408 412 -920 666 -1497 741 -88 12 -438 21 -500 14z m520 -304
c240 -37 441 -100 665 -210 593 -291 1033 -831 1200 -1475 50 -191 68 -341 68
-565 0 -224 -18 -374 -68 -565 -167 -644 -607 -1184 -1200 -1475 -335 -164
-631 -233 -1005 -233 -374 0 -670 69 -1005 233 -593 291 -1033 831 -1200 1475
-50 191 -68 341 -68 565 0 224 18 374 68 565 167 644 607 1184 1200 1475 427
209 883 281 1345 210z"/>
<path d="M2320 3379 c-61 -25 -97 -91 -85 -157 6 -32 50 -81 318 -349 l312
-313 -312 -312 c-268 -269 -312 -318 -318 -350 -18 -99 75 -187 172 -163 31 7
754 720 779 767 17 33 18 81 2 111 -18 35 -706 730 -746 754 -39 24 -81 28
-122 12z"/>
</g>
</svg>
