<?xml version="1.0" standalone="no"?>
<!DOCTYPE svg PUBLIC "-//W3C//DTD SVG 20010904//EN"
 "http://www.w3.org/TR/2001/REC-SVG-20010904/DTD/svg10.dtd">
<svg version="1.0" xmlns="http://www.w3.org/2000/svg"
 width="512.000000pt" height="512.000000pt" viewBox="0 0 512.000000 512.000000"
 preserveAspectRatio="xMidYMid meet">

<g transform="translate(0.000000,512.000000) scale(0.100000,-0.100000)"
fill="#000000" stroke="none">
<path d="M2710 5113 c-149 -26 -296 -128 -367 -254 -52 -92 -68 -153 -68 -264
0 -111 16 -172 68 -264 64 -113 197 -214 325 -243 l52 -13 0 -1515 0 -1515
-52 -13 c-168 -39 -312 -172 -370 -341 -30 -87 -32 -239 -4 -321 56 -166 179
-289 346 -346 52 -18 104 -19 1055 -19 951 0 1003 1 1055 19 168 57 290 179
346 346 13 39 19 84 19 155 0 111 -16 172 -68 264 -64 113 -197 214 -324 243
l-53 13 -2 1830 -3 1830 -22 57 c-32 85 -71 145 -129 204 -60 60 -114 94 -200
126 l-59 23 -760 1 c-418 1 -771 0 -785 -3z m1586 -176 c77 -36 154 -113 191
-192 l28 -60 5 -1873 5 -1874 22 -17 c12 -11 48 -21 83 -24 131 -14 251 -100
307 -222 24 -52 28 -73 28 -150 0 -77 -4 -98 -28 -150 -37 -79 -114 -156 -191
-192 l-61 -28 -990 0 -990 0 -61 28 c-77 36 -154 113 -191 192 -24 52 -28 73
-28 150 0 77 4 98 28 150 57 122 176 208 308 222 47 5 69 12 86 29 l23 23 0
1611 0 1611 -23 23 c-17 17 -39 24 -87 29 -130 14 -252 101 -307 221 -24 52
-28 74 -28 151 0 78 4 98 28 150 48 103 150 189 254 214 21 5 369 9 783 8
l745 -2 61 -28z"/>
<path d="M2715 4805 c-51 -18 -120 -91 -134 -141 -25 -91 -7 -162 59 -226 61
-59 94 -68 253 -68 l127 0 0 -843 c0 -835 0 -843 20 -865 28 -30 82 -30 110 0
20 22 20 30 20 915 l0 894 -25 24 c-24 25 -27 25 -200 25 -173 0 -176 0 -200
25 -14 13 -25 36 -25 50 0 14 11 37 25 50 l24 25 701 0 701 0 24 -25 25 -24 0
-1986 0 -1986 25 -24 c24 -25 27 -25 200 -25 173 0 176 0 200 -25 32 -31 32
-69 0 -100 l-24 -25 -926 0 -926 0 -24 25 c-14 13 -25 36 -25 50 0 14 11 37
25 50 24 25 27 25 200 25 173 0 176 0 200 25 l25 24 0 894 c0 885 0 893 -20
915 -28 30 -82 30 -110 0 -20 -22 -20 -30 -20 -865 l0 -843 -127 0 c-160 0
-195 -10 -254 -69 -65 -64 -83 -135 -58 -226 14 -51 93 -130 146 -144 58 -16
1882 -15 1937 1 54 16 128 90 144 144 26 88 9 157 -56 224 -59 61 -92 70 -254
70 l-128 0 0 1936 c0 1505 -3 1946 -12 1978 -17 55 -91 131 -143 145 -27 7
-266 11 -750 11 -586 -1 -717 -3 -750 -15z"/>
<path d="M665 3823 c-44 -23 -84 -63 -108 -108 -18 -35 -21 -62 -25 -222 l-4
-183 -167 0 c-91 0 -184 -5 -206 -11 -81 -23 -155 -124 -155 -214 0 -89 75
-192 157 -214 21 -6 113 -11 206 -11 l167 0 0 -300 0 -300 -167 0 c-93 0 -186
-5 -208 -11 -81 -23 -155 -124 -155 -214 0 -89 75 -192 157 -214 21 -6 113
-11 204 -11 l167 0 4 -182 c5 -197 10 -220 67 -281 84 -91 238 -91 322 0 57
61 62 84 67 281 l4 182 293 0 293 0 4 -182 c5 -197 10 -220 67 -281 84 -91
238 -91 322 0 57 61 62 84 67 281 l4 182 166 0 c197 0 231 8 292 70 64 64 83
136 59 223 -14 53 -93 132 -144 146 -22 6 -115 11 -207 11 l-168 0 0 300 0
300 166 0 c199 0 232 8 294 70 64 64 83 136 59 223 -14 53 -93 132 -144 146
-22 6 -115 11 -206 11 l-167 0 -4 183 c-5 196 -10 219 -67 280 -42 46 -93 67
-161 67 -68 0 -119 -21 -161 -67 -57 -61 -62 -84 -67 -280 l-4 -183 -293 0
-293 0 -4 183 c-4 150 -7 188 -22 217 -25 48 -64 88 -108 111 -47 24 -150 25
-193 2z m147 -150 c16 -15 18 -35 18 -217 0 -208 7 -259 37 -282 26 -20 810
-20 836 0 30 23 37 74 37 280 0 225 3 236 68 236 69 0 72 -8 72 -234 0 -111 4
-216 10 -235 17 -59 23 -60 263 -61 218 0 218 0 242 -25 32 -31 32 -69 0 -100
-24 -25 -24 -25 -242 -25 -240 -1 -246 -2 -263 -61 -13 -44 -13 -734 0 -778
17 -59 23 -60 263 -61 218 0 218 0 242 -25 32 -31 32 -69 0 -100 -24 -25 -24
-25 -242 -25 -240 -1 -246 -2 -263 -61 -6 -19 -10 -124 -10 -233 0 -225 -3
-236 -68 -236 -69 0 -72 8 -72 234 0 208 -7 259 -37 282 -26 20 -810 20 -836
0 -30 -23 -37 -74 -37 -280 0 -225 -3 -236 -68 -236 -69 0 -72 8 -72 234 0
111 -4 216 -10 235 -17 59 -23 60 -263 61 -218 0 -218 0 -242 25 -32 31 -32
69 0 100 24 25 24 25 242 25 240 1 246 2 263 61 13 44 13 734 0 778 -17 59
-23 60 -263 61 -218 0 -218 0 -242 25 -32 31 -32 69 0 100 24 25 24 25 242 25
240 1 246 2 263 61 6 19 10 124 10 233 0 172 2 202 17 218 20 23 80 24 105 1z"/>
<path d="M867 2996 c-10 -8 -22 -29 -27 -47 -13 -44 -13 -734 0 -778 17 -62 6
-60 445 -60 439 0 428 -2 445 60 13 44 13 734 0 778 -17 62 -6 60 -445 60
-321 0 -404 -2 -418 -13z m713 -436 l0 -300 -295 0 -295 0 0 300 0 300 295 0
295 0 0 -300z"/>
</g>
</svg>
