<?xml version="1.0" standalone="no"?>
<!DOCTYPE svg PUBLIC "-//W3C//DTD SVG 20010904//EN"
 "http://www.w3.org/TR/2001/REC-SVG-20010904/DTD/svg10.dtd">
<svg version="1.0" xmlns="http://www.w3.org/2000/svg"
 width="512.000000pt" height="512.000000pt" viewBox="0 0 512.000000 512.000000"
 preserveAspectRatio="xMidYMid meet">

<g transform="translate(0.000000,512.000000) scale(0.100000,-0.100000)"
fill="#000000" stroke="none">
<path d="M469 4187 c-144 -60 -228 -152 -265 -292 -17 -62 -19 -387 -3 -416
25 -48 105 -44 128 7 7 15 11 88 11 188 0 186 10 229 67 296 21 24 60 53 87
66 51 24 54 24 402 24 386 0 401 -2 474 -60 22 -18 51 -55 67 -88 l28 -57 3
-276 3 -276 -69 -5 c-125 -9 -247 -84 -317 -193 -51 -79 -65 -135 -65 -252 l0
-103 -339 0 -340 0 -3 224 c-3 204 -5 226 -22 245 -26 29 -76 28 -104 -2 -21
-22 -22 -31 -22 -244 l0 -220 -49 -5 c-58 -6 -102 -35 -125 -82 -22 -46 -23
-283 -2 -324 30 -57 61 -75 139 -81 l72 -6 3 -142 c3 -140 2 -142 -23 -167
-32 -32 -33 -75 -2 -104 22 -21 32 -22 220 -22 184 0 198 1 217 20 32 32 30
73 -6 111 -24 25 -25 29 -22 165 l3 139 200 0 200 0 3 -207 2 -208 -33 0 c-51
0 -119 -39 -139 -80 -27 -52 -26 -291 1 -340 25 -47 69 -71 141 -77 l60 -6 0
-139 c0 -125 -2 -143 -20 -165 -26 -33 -26 -77 0 -103 19 -19 33 -20 220 -20
187 0 201 1 220 20 28 28 26 75 -5 106 -24 24 -25 29 -25 164 l0 140 290 0
290 0 0 -141 c0 -138 -1 -142 -25 -165 -32 -30 -33 -73 -2 -102 22 -21 32 -22
224 -22 188 0 201 1 218 20 25 27 23 75 -3 103 -20 22 -22 33 -22 164 l0 140
63 8 c34 4 73 7 87 7 14 0 53 -3 88 -7 l62 -8 0 -139 c0 -136 -1 -141 -26
-171 -28 -33 -27 -66 3 -99 14 -16 38 -18 219 -18 l203 0 20 26 c28 36 26 70
-4 98 -24 23 -25 27 -25 165 l0 141 285 0 285 0 0 -141 c0 -126 -2 -144 -20
-166 -26 -33 -26 -77 0 -103 19 -19 33 -20 220 -20 187 0 201 1 220 20 28 28
26 75 -5 106 -24 24 -25 29 -25 163 l0 138 65 5 c76 7 121 30 146 78 27 49 28
288 1 340 -20 41 -88 80 -139 80 l-33 0 2 208 3 207 198 3 197 2 0 -147 c0
-131 -2 -149 -19 -167 -31 -34 -31 -76 -1 -106 19 -19 33 -20 218 -20 195 0
199 0 220 23 29 31 28 72 -3 103 -24 24 -25 29 -25 168 l0 144 74 4 c81 4 111
21 142 80 21 41 20 278 -2 324 -23 47 -67 76 -125 82 l-49 5 0 221 c0 210 -1
223 -20 244 -27 29 -80 29 -106 1 -17 -19 -19 -41 -22 -245 l-3 -224 -339 0
-338 0 -4 118 c-3 113 -5 121 -40 193 -68 137 -193 224 -338 236 l-71 6 3 276
3 276 28 57 c16 33 45 70 67 88 73 58 88 60 474 60 347 0 352 0 401 -24 28
-12 65 -40 84 -61 59 -68 65 -92 71 -296 4 -165 7 -189 24 -208 25 -27 79 -28
106 -1 19 19 20 33 20 198 0 118 -5 194 -14 228 -33 123 -115 221 -234 277
l-67 32 -400 0 -400 0 -67 -32 c-76 -36 -149 -103 -191 -176 -47 -80 -57 -154
-57 -439 l0 -258 -109 0 -109 0 -5 283 c-5 288 -9 325 -50 403 -46 89 -142
170 -239 203 -58 20 -82 21 -428 21 -346 0 -370 -1 -428 -21 -107 -36 -201
-120 -247 -221 -36 -78 -45 -164 -45 -430 l0 -238 -110 0 -110 0 0 258 c0 285
-10 359 -57 439 -42 73 -115 140 -191 176 l-67 32 -390 2 c-388 3 -390 3 -446
-20z m2496 -151 c62 -28 116 -87 141 -152 17 -44 19 -78 19 -314 l0 -265 -65
-7 c-244 -25 -390 -205 -390 -480 l0 -68 -110 0 -110 0 0 63 c-1 155 -41 275
-119 355 -79 80 -159 119 -271 130 l-65 7 0 265 c0 181 4 278 13 306 17 57 86
132 147 160 49 24 54 24 405 24 351 0 356 0 405 -24z m-830 -910 c28 -12 67
-42 88 -66 75 -82 72 -52 75 -667 l3 -553 -566 0 -565 0 0 553 0 552 24 51
c13 27 43 67 66 87 75 64 86 65 475 66 346 1 351 1 400 -23z m1637 8 c62 -21
121 -74 152 -136 l26 -52 0 -553 0 -553 -565 0 -566 0 3 553 c3 615 0 585 75
667 21 24 61 54 88 66 49 23 55 24 396 24 286 0 353 -3 391 -16z m-2754 -631
l3 -93 -436 0 -435 0 0 95 0 95 433 -2 432 -3 3 -92z m1652 2 l0 -95 -110 0
-110 0 0 95 0 95 110 0 110 0 0 -95z m2300 0 l0 -95 -435 0 -435 0 0 95 0 95
435 0 435 0 0 -95z m-4510 -390 l0 -145 -40 0 -40 0 0 145 0 145 40 0 40 0 0
-145z m2210 -63 l0 -208 -55 -10 c-37 -7 -73 -7 -110 0 l-55 10 0 208 0 208
110 0 110 0 0 -208z m2070 63 l0 -145 -45 0 -45 0 0 138 c0 76 3 142 7 145 3
4 24 7 45 7 l38 0 0 -145z m-2260 -525 l0 -100 -750 0 -750 0 0 100 0 100 750
0 750 0 0 -100z m1660 0 l0 -100 -752 2 -753 3 -3 84 c-2 46 -1 90 2 98 4 11
140 13 756 13 l750 0 0 -100z m-2850 -390 l0 -140 -45 0 -45 0 0 140 0 140 45
0 45 0 0 -140z m970 0 l0 -140 -45 0 -45 0 0 140 0 140 45 0 45 0 0 -140z
m690 0 l0 -140 -45 0 -45 0 0 140 0 140 45 0 45 0 0 -140z m960 0 l0 -140 -40
0 -40 0 0 140 0 140 40 0 40 0 0 -140z"/>
</g>
</svg>
