<?xml version="1.0" standalone="no"?>
<!DOCTYPE svg PUBLIC "-//W3C//DTD SVG 20010904//EN"
 "http://www.w3.org/TR/2001/REC-SVG-20010904/DTD/svg10.dtd">
<svg version="1.0" xmlns="http://www.w3.org/2000/svg"
 width="512.000000pt" height="512.000000pt" viewBox="0 0 512.000000 512.000000"
 preserveAspectRatio="xMidYMid meet">

<g transform="translate(0.000000,512.000000) scale(0.100000,-0.100000)"
fill="#000000" stroke="none">
<path d="M1396 4090 c-16 -5 -44 -24 -63 -42 -62 -60 -66 -152 -12 -246 65
-115 174 -153 339 -117 36 7 68 11 71 7 4 -4 34 -121 69 -260 54 -218 61 -254
49 -269 -8 -10 -56 -70 -108 -133 -52 -63 -96 -117 -98 -120 -2 -2 -16 4 -31
13 -70 45 -210 109 -285 131 -472 137 -972 -75 -1203 -508 -165 -310 -165
-662 0 -972 132 -249 368 -439 636 -513 505 -139 1043 127 1237 612 14 34 27
63 28 65 2 2 21 -8 42 -21 39 -25 77 -38 157 -54 39 -8 40 -10 65 -87 19 -59
23 -80 14 -83 -55 -19 -74 -87 -34 -126 20 -21 31 -22 170 -22 132 0 151 2
170 19 14 13 21 31 21 57 0 51 -27 69 -101 69 l-56 0 -32 103 c-17 56 -31 106
-31 111 0 5 18 24 39 43 22 18 53 61 70 95 27 52 31 72 31 137 0 55 -6 89 -21
121 l-20 45 526 524 c304 303 530 520 535 515 10 -10 70 -164 70 -179 0 -5
-28 -25 -63 -42 -79 -42 -210 -145 -268 -215 -189 -221 -268 -452 -256 -741 6
-149 32 -257 93 -386 214 -456 730 -694 1214 -560 384 107 681 438 745 834 75
456 -166 908 -589 1106 -199 93 -409 117 -644 72 -46 -8 -85 -13 -87 -11 -12
12 -195 506 -195 526 0 13 13 37 29 53 l29 29 169 0 c192 0 222 -9 256 -74 24
-46 17 -95 -21 -138 -24 -26 -37 -31 -96 -37 -77 -8 -106 -30 -106 -80 0 -48
37 -71 111 -71 84 0 151 31 207 95 119 135 79 339 -82 423 -49 25 -58 27 -238
30 -219 4 -272 -6 -331 -63 -49 -48 -68 -87 -74 -154 -4 -42 0 -70 16 -111 12
-30 21 -58 21 -63 0 -4 -343 -6 -762 -5 l-762 3 -37 150 c-21 82 -37 151 -35
152 1 2 58 14 127 28 68 14 135 33 149 44 46 33 70 80 70 136 0 66 -29 112
-90 143 -43 22 -51 22 -380 21 -184 0 -348 -5 -364 -9z m684 -154 c0 -9 -73
-28 -257 -65 -142 -28 -268 -51 -281 -51 -38 0 -78 27 -96 65 -32 67 -42 65
314 65 262 0 320 -2 320 -14z m835 -1176 l-511 -511 -44 20 c-25 11 -59 21
-76 21 -17 0 -36 6 -41 13 -9 11 -243 933 -243 957 0 7 240 10 712 10 l713 0
-510 -510z m-910 -149 c71 -287 85 -355 74 -361 -7 -5 -15 -8 -16 -6 -1 1 -14
42 -28 92 -45 155 -112 281 -219 406 -36 43 -54 73 -50 80 5 7 37 48 73 91 43
51 67 73 71 65 4 -7 47 -172 95 -367z m-775 313 c36 -8 90 -24 120 -35 57 -21
176 -84 184 -97 2 -4 -113 -149 -256 -322 -356 -430 -339 -404 -295 -456 l24
-27 259 -18 c142 -10 274 -18 292 -19 33 0 33 -1 27 -32 -14 -67 -76 -178
-134 -241 -113 -120 -249 -179 -416 -179 -159 -1 -288 53 -400 166 -109 111
-160 236 -160 396 0 163 51 287 166 401 108 107 238 159 403 164 94 2 109 7
125 41 16 36 14 49 -13 81 -24 27 -27 28 -123 27 -122 -2 -202 -21 -318 -78
-331 -162 -481 -561 -341 -904 119 -295 436 -483 743 -442 178 23 293 81 424
210 70 70 94 103 131 177 26 50 52 116 58 146 l13 55 81 -5 c44 -3 83 -7 85
-9 8 -7 -21 -119 -50 -194 -55 -145 -176 -297 -315 -396 -169 -121 -402 -180
-609 -154 -363 45 -660 303 -757 656 -30 112 -31 335 0 445 96 351 388 609
744 659 79 11 222 3 308 -16z m3064 -4 c345 -88 601 -364 662 -712 81 -461
-216 -902 -682 -1014 -102 -25 -285 -23 -397 4 -401 98 -677 450 -677 862 0
316 159 598 430 761 73 43 66 47 104 -53 l25 -67 -52 -32 c-74 -45 -173 -144
-222 -219 -81 -127 -115 -240 -115 -391 0 -199 67 -358 214 -504 73 -73 108
-99 176 -133 111 -54 200 -75 325 -75 123 0 200 18 320 77 284 139 440 457
381 770 -48 249 -223 453 -463 539 -107 39 -144 42 -176 17 -20 -16 -27 -30
-27 -56 0 -45 26 -69 91 -83 29 -7 87 -28 128 -47 91 -44 191 -141 239 -231
40 -76 72 -197 72 -273 0 -31 -9 -92 -20 -134 -50 -197 -184 -340 -380 -406
-89 -31 -237 -31 -330 -1 -149 47 -280 159 -344 293 -117 249 -51 527 167 699
27 22 54 39 61 39 7 0 55 -113 112 -262 54 -145 107 -271 117 -280 27 -28 81
-23 106 8 12 15 21 33 21 40 0 7 -70 195 -155 418 -85 223 -155 414 -157 423
-9 49 284 65 446 23z m-2579 -290 c118 -141 205 -357 205 -510 l0 -40 -54 0
c-29 0 -68 3 -85 6 -27 6 -31 11 -31 39 0 100 -83 300 -162 390 l-40 45 53 65
c29 36 55 65 58 64 3 0 28 -27 56 -59z m-224 -232 c17 -24 44 -70 59 -103 28
-60 58 -181 47 -191 -3 -3 -96 0 -207 8 l-202 13 128 157 c71 86 132 157 136
157 5 1 22 -18 39 -41z m835 -279 c97 -59 101 -213 7 -274 -154 -101 -333 83
-227 233 44 62 153 83 220 41z"/>
</g>
</svg>
