<?xml version="1.0" standalone="no"?>
<!DOCTYPE svg PUBLIC "-//W3C//DTD SVG 20010904//EN"
 "http://www.w3.org/TR/2001/REC-SVG-20010904/DTD/svg10.dtd">
<svg version="1.0" xmlns="http://www.w3.org/2000/svg"
 width="512.000000pt" height="512.000000pt" viewBox="0 0 512.000000 512.000000"
 preserveAspectRatio="xMidYMid meet">

<g transform="translate(0.000000,512.000000) scale(0.100000,-0.100000)"
fill="#000000" stroke="none">
<path d="M3450 5106 c-167 -48 -288 -179 -320 -345 -13 -72 -13 -210 1 -252
16 -47 54 -96 90 -114 l29 -16 0 -204 0 -204 -262 -3 -263 -3 -64 -35 c-41
-22 -78 -52 -102 -83 -66 -83 -69 -105 -69 -509 l0 -358 -240 0 -240 0 0 73
c0 227 -124 374 -325 385 -65 3 -91 0 -137 -18 -74 -28 -146 -93 -183 -166
-26 -52 -30 -71 -34 -166 l-3 -108 -313 0 c-266 0 -321 -3 -365 -17 -68 -22
-140 -87 -171 -155 l-24 -53 -3 -504 c-2 -354 0 -513 8 -532 11 -25 46 -49 74
-49 7 0 25 9 40 21 26 20 26 21 26 160 0 76 1 139 3 139 1 0 24 -7 51 -15 27
-8 80 -15 118 -15 l68 0 0 -39 c0 -33 -4 -41 -27 -50 -34 -12 -54 -28 -76 -61
-25 -37 -24 -174 3 -217 39 -65 51 -68 292 -71 200 -3 220 -2 263 17 64 28 90
85 82 184 -5 82 -24 113 -85 142 -38 18 -42 23 -42 57 l0 38 417 -2 418 -3 3
-35 c3 -32 0 -37 -31 -48 -18 -6 -46 -26 -63 -43 -27 -28 -29 -37 -32 -117 -2
-73 0 -92 17 -119 41 -65 52 -68 296 -71 213 -3 221 -2 264 20 64 33 83 73 79
170 -4 90 -22 123 -86 153 -38 18 -42 23 -42 57 l0 38 78 0 c42 1 95 7 117 15
22 8 41 15 43 15 1 0 2 -390 2 -866 0 -947 3 -905 -58 -949 -26 -20 -45 -20
-992 -23 -904 -2 -967 -1 -999 15 -19 10 -44 31 -55 46 -21 28 -21 40 -24 622
l-3 594 -26 21 c-61 48 -123 4 -123 -88 l0 -39 -74 -6 c-119 -9 -203 -64 -253
-165 l-28 -57 0 -280 0 -280 26 -55 c51 -110 143 -170 260 -170 l67 0 7 -47
c11 -78 43 -140 97 -188 89 -80 28 -76 1139 -73 l984 3 53 30 c85 47 136 120
150 217 6 48 10 53 35 56 26 3 27 2 27 -51 0 -111 43 -188 127 -231 63 -31
166 -14 221 37 45 41 57 77 62 182 l5 100 403 3 402 2 0 -93 c0 -113 22 -165
89 -212 38 -27 51 -30 115 -30 93 0 141 28 180 106 22 45 26 66 26 140 l0 87
113 4 c91 3 121 8 159 26 97 48 161 138 179 254 6 39 8 477 7 1141 l-3 1079
-28 24 c-34 29 -56 30 -91 3 l-26 -20 0 -1092 c0 -620 -4 -1109 -10 -1131 -11
-48 -36 -84 -80 -114 l-33 -22 -761 0 -761 0 3 282 c4 312 0 339 -54 419 l-34
48 -2 1166 -3 1167 -24 19 c-30 25 -76 24 -101 -1 -20 -20 -20 -33 -20 -1150
l0 -1130 -60 0 -59 0 -3 728 -3 727 -31 55 c-36 64 -99 116 -160 132 l-44 12
0 360 0 359 25 43 c16 28 39 49 68 63 43 21 49 21 1023 21 l980 0 44 -22 c54
-28 80 -62 91 -119 4 -24 8 -155 9 -291 l0 -247 26 -20 c35 -27 57 -26 91 3
l28 24 0 284 0 283 -29 62 c-33 72 -94 134 -164 166 -44 20 -65 22 -309 25
l-263 3 0 205 c0 129 4 204 10 204 22 0 90 74 105 115 25 65 17 269 -14 347
-42 109 -139 206 -248 250 -55 21 -72 23 -338 25 -204 1 -292 -2 -325 -11z
m638 -171 c59 -32 92 -66 125 -129 17 -33 22 -63 25 -153 4 -111 4 -111 -22
-128 -24 -16 -28 -16 -51 -1 -23 15 -25 22 -25 94 0 102 -14 149 -59 193 -55
55 -90 61 -350 57 -216 -3 -228 -4 -263 -26 -68 -42 -82 -73 -88 -195 -5 -92
-9 -111 -25 -123 -26 -19 -41 -18 -66 7 -20 20 -21 30 -17 124 5 118 25 170
89 234 75 75 106 81 409 78 l265 -2 53 -30z m-116 -227 c13 -10 17 -35 20
-114 3 -112 19 -149 85 -194 l33 -23 0 -203 0 -204 -355 0 -355 0 0 203 0 204
37 24 c61 39 85 95 91 208 3 54 10 99 16 103 20 14 410 9 428 -4z m-2229
-1432 c43 -17 93 -76 106 -123 6 -21 11 -68 11 -105 l0 -68 -190 0 -190 0 0
83 c1 117 26 169 105 210 37 20 115 21 158 3z m-903 -806 l0 -360 -67 0 c-76
0 -119 19 -150 67 -16 24 -18 54 -18 294 0 255 1 269 21 296 31 43 80 63 152
63 l62 0 0 -360z m260 -115 l0 -475 -55 0 -55 0 0 475 0 475 55 0 55 0 0 -475z
m988 113 l2 -358 -420 0 -420 0 0 360 0 360 418 -2 417 -3 3 -357z m252 -113
l0 -475 -50 0 -50 0 0 475 0 475 50 0 50 0 0 -475z m321 453 c66 -37 69 -53
69 -340 0 -226 -2 -257 -18 -287 -27 -50 -73 -71 -154 -71 l-68 0 0 360 0 360
66 0 c49 0 76 -6 105 -22z m-1433 -1105 l-3 -28 -177 -3 -178 -2 0 30 0 30
181 0 180 0 -3 -27z m1242 -3 l0 -30 -180 0 -180 0 0 30 0 30 180 0 180 0 0
-30z m-2020 -885 l0 -355 -61 0 c-58 0 -64 2 -99 38 -49 48 -53 80 -48 357 3
189 5 213 23 245 26 44 77 70 138 70 l47 0 0 -355z m2568 335 c18 -11 41 -34
52 -52 18 -31 20 -51 20 -281 0 -276 -5 -302 -62 -337 -23 -14 -50 -20 -90
-20 l-58 0 0 355 0 355 53 0 c34 0 63 -7 85 -20z m182 -883 c0 -91 -8 -107
-51 -107 -42 0 -59 33 -59 111 0 36 3 69 7 72 3 4 28 7 55 7 l48 0 0 -83z
m1220 6 c0 -84 -14 -113 -56 -113 -42 0 -54 25 -54 111 l0 79 55 0 55 0 0 -77z"/>
<path d="M3479 3601 l-24 -19 0 -1352 0 -1352 24 -19 c30 -25 76 -24 101 1 20
20 20 33 20 1370 0 1337 0 1350 -20 1370 -25 25 -71 26 -101 1z"/>
<path d="M3931 3594 l-21 -27 0 -1337 0 -1337 21 -27 c27 -34 77 -36 107 -3
l22 23 0 1345 0 1346 -23 21 c-33 31 -80 29 -106 -4z"/>
<path d="M4392 3597 l-22 -23 0 -1345 0 -1346 23 -21 c31 -29 72 -28 102 3
l25 24 0 1339 0 1339 -21 27 c-27 34 -77 36 -107 3z"/>
<path d="M975 1315 c-42 -20 -59 -35 -84 -75 -20 -34 -21 -46 -21 -365 0 -370
-1 -362 76 -421 l37 -29 661 -3 c441 -2 673 0 697 7 51 15 88 48 110 95 17 37
19 71 19 351 0 350 -3 366 -76 421 l-37 29 -676 2 c-567 2 -681 0 -706 -12z
m1343 -431 c2 -238 0 -293 -11 -303 -11 -8 -184 -10 -648 -9 l-634 3 -3 290
c-1 159 0 295 3 302 3 11 135 13 647 11 l643 -3 3 -291z"/>
</g>
</svg>
